<?xml version="1.0" encoding="utf-8"?>
<svg version="1.1" xmlns="http://www.w3.org/2000/svg" xmlns:xlink="http://www.w3.org/1999/xlink" x="0px" y="0px"
	 width="760.3px" height="760.3px" viewBox="0 0 760.3 760.3" style="enable-background:new 0 0 760.3 760.3;" xml:space="preserve">
<style type="text/css">
	.grey1{fill:#383838;}
	.grey2{fill:#414141;}
	.none{fill:none;}
</style>
<rect x="-53.8" y="-153.6" transform="matrix(0.7071 -0.7071 0.7071 0.7071 -537.5798 222.6722)" class="grey1" width="107.5" height="1827.8"/>
<rect x="-15.7" y="-191.6" transform="matrix(0.7071 -0.7071 0.7071 0.7071 -499.5681 238.4186)" class="grey2" width="107.5" height="1827.8"/>
<rect x="22.3" y="-229.7" transform="matrix(0.7071 -0.7071 0.7071 0.7071 -461.5554 254.164)" class="grey1" width="107.5" height="1827.8"/>
<rect x="60.3" y="-267.7" transform="matrix(0.7071 -0.7071 0.7071 0.7071 -423.5427 269.9094)" class="grey2" width="107.5" height="1827.8"/>
<rect x="98.3" y="-305.7" transform="matrix(0.7071 -0.7071 0.7071 0.7071 -385.5299 285.6547)" class="grey1" width="107.5" height="1827.8"/>
<rect x="136.3" y="-343.7" transform="matrix(0.7071 -0.7071 0.7071 0.7071 -347.5172 301.4001)" class="grey2" width="107.5" height="1827.8"/>
<rect x="174.3" y="-381.7" transform="matrix(0.7071 -0.7071 0.7071 0.7071 -309.5045 317.1454)" class="grey1" width="107.5" height="1827.8"/>
<rect x="212.3" y="-419.7" transform="matrix(0.7071 -0.7071 0.7071 0.7071 -271.4918 332.8908)" class="grey2" width="107.5" height="1827.8"/>
<rect x="250.3" y="-457.7" transform="matrix(0.7071 -0.7071 0.7071 0.7071 -233.4791 348.6362)" class="grey1" width="107.5" height="1827.8"/>
<rect x="288.4" y="-495.7" transform="matrix(0.7071 -0.7071 0.7071 0.7071 -195.4664 364.3816)" class="grey2" width="107.5" height="1827.8"/>
<rect x="326.4" y="-533.8" transform="matrix(0.7071 -0.7071 0.7071 0.7071 -157.4537 380.127)" class="grey1" width="107.5" height="1827.8"/>
<rect x="364.4" y="-571.8" transform="matrix(0.7071 -0.7071 0.7071 0.7071 -119.441 395.8723)" class="grey2" width="107.5" height="1827.8"/>
<rect x="402.4" y="-609.8" transform="matrix(0.7071 -0.7071 0.7071 0.7071 -81.4284 411.6177)" class="grey1" width="107.5" height="1827.8"/>
<rect x="440.4" y="-647.8" transform="matrix(0.7071 -0.7071 0.7071 0.7071 -43.4157 427.3631)" class="grey2" width="107.5" height="1827.8"/>
<rect x="478.4" y="-685.8" transform="matrix(0.7071 -0.7071 0.7071 0.7071 -5.403 443.1085)" class="grey1" width="107.5" height="1827.8"/>
<rect x="516.4" y="-723.8" transform="matrix(0.7071 -0.7071 0.7071 0.7071 32.6098 458.8539)" class="grey2" width="107.5" height="1827.8"/>
<rect x="554.4" y="-761.8" transform="matrix(0.7071 -0.7071 0.7071 0.7071 70.6225 474.5993)" class="grey1" width="107.5" height="1827.8"/>
<rect x="592.5" y="-799.8" transform="matrix(0.7071 -0.7071 0.7071 0.7071 108.6352 490.3446)" class="grey2" width="107.5" height="1827.8"/>
<rect x="630.5" y="-837.9" transform="matrix(0.7071 -0.7071 0.7071 0.7071 146.6478 506.09)" class="grey1" width="107.5" height="1827.8"/>
<rect x="668.5" y="-875.9" transform="matrix(0.7071 -0.7071 0.7071 0.7071 184.6606 521.8354)" class="grey2" width="107.5" height="1827.8"/>
<rect x="706.5" y="-913.9" transform="matrix(0.7071 -0.7071 0.7071 0.7071 222.6743 537.5817)" class="grey1" width="107.5" height="1827.8"/>
<rect x="752.4" y="-932.9" transform="matrix(0.7071 -0.7071 0.7071 0.7071 241.6817 545.4554)" class="grey2" width="53.8" height="1827.8"/>
<rect id="MASK" class="none" width="760.3" height="760.3"/>
</svg>